<svg viewBox="0 0 429 240" xmlns="http://www.w3.org/2000/svg" role="img" aria-label="Structure My Learning logo">
<rect x="85" y="86" width="50" height="21" rx="10.5" fill="#ffffff"/>
  <rect x="58" y="112" width="50" height="21" rx="10.5" fill="#ffffff"/>
  <rect x="31" y="138" width="50" height="21" rx="10.5" fill="#ffffff"/>
  <!-- "Structure" - Bricolage Grotesque 700, outlined -->
  <g>
    <path fill="#ffffff" d="M299 -14Q229 -14 176.5 2.0Q124 18 89.0 48.0Q54 78 37.5 120.5Q21 163 23 215L173 248Q175 202 192.5 173.5Q210 145 240.0 131.5Q270 118 307 118Q337 118 360.0 125.5Q383 133 396.5 146.5Q410 160 410 178Q410 202 392.0 217.5Q374 233 342.5 244.0Q311 255 271 266Q228 278 185.5 292.5Q143 307 108.0 329.0Q73 351 51.5 386.0Q30 421 30 473Q30 537 62.5 582.0Q95 627 152.5 650.5Q210 674 284 674Q362 674 423.0 647.5Q484 621 517.0 570.0Q550 519 543 445L395 421Q396 451 389.0 474.0Q382 497 367.5 513.0Q353 529 331.0 537.5Q309 546 279 546Q248 546 227.5 538.0Q207 530 196.5 516.0Q186 502 186 484Q186 463 202.0 449.0Q218 435 248.0 424.5Q278 414 319 403Q362 391 405.5 376.5Q449 362 486.0 338.5Q523 315 545.5 278.0Q568 241 568 184Q568 118 533.5 74.0Q499 30 438.5 8.0Q378 -14 299 -14Z" transform="translate(165.000,124.000) scale(0.057000,-0.057000)"/>
    <path fill="#ffffff" d="M247 -12Q154 -12 108.5 35.5Q63 83 63 183V402H5V504H8Q70 512 96.0 545.5Q122 579 128 647V649H223V528H344V398H223V198Q223 160 241.5 144.0Q260 128 287 128Q301 128 316.0 132.0Q331 136 344 143V2Q313 -7 289.0 -9.5Q265 -12 247 -12Z" transform="translate(196.845,124.000) scale(0.057000,-0.057000)"/>
    <path fill="#ffffff" d="M36 0V287V528H176V318H184Q190 402 207.5 450.5Q225 499 251.5 519.5Q278 540 311 540Q329 540 348.5 535.0Q368 530 387 519L379 339Q357 352 336.0 358.5Q315 365 296 365Q264 365 242.0 347.0Q220 329 208.5 294.0Q197 259 197 209V0Z" transform="translate(216.321,124.000) scale(0.057000,-0.057000)"/>
    <path fill="#ffffff" d="M200 -14Q114 -14 72.5 46.0Q31 106 31 230V528H193V232Q193 174 209.5 151.0Q226 128 257 128Q279 128 297.5 139.5Q316 151 330.0 174.5Q344 198 351.5 235.0Q359 272 359 324V528H521V238V0H383V206H376Q370 129 349.0 80.5Q328 32 291.0 9.0Q254 -14 200 -14Z" transform="translate(237.906,124.000) scale(0.057000,-0.057000)"/>
    <path fill="#ffffff" d="M289 -14Q218 -14 167.0 7.5Q116 29 84.0 67.0Q52 105 37.0 154.0Q22 203 22 258Q22 314 37.0 364.5Q52 415 83.5 455.5Q115 496 165.5 519.0Q216 542 287 542Q371 542 422.5 510.5Q474 479 494.5 429.0Q515 379 506 321L366 310Q368 346 358.5 369.5Q349 393 330.0 404.5Q311 416 284 416Q260 416 241.5 407.0Q223 398 210.5 379.5Q198 361 191.5 333.0Q185 305 185 266Q185 216 196.5 180.0Q208 144 231.5 125.0Q255 106 291 106Q328 106 347.0 124.0Q366 142 372.0 169.5Q378 197 374 224L523 217Q529 173 519.0 131.5Q509 90 480.5 57.0Q452 24 404.5 5.0Q357 -14 289 -14Z" transform="translate(268.155,124.000) scale(0.057000,-0.057000)"/>
    <path fill="#ffffff" d="M247 -12Q154 -12 108.5 35.5Q63 83 63 183V402H5V504H8Q70 512 96.0 545.5Q122 579 128 647V649H223V528H344V398H223V198Q223 160 241.5 144.0Q260 128 287 128Q301 128 316.0 132.0Q331 136 344 143V2Q313 -7 289.0 -9.5Q265 -12 247 -12Z" transform="translate(297.378,124.000) scale(0.057000,-0.057000)"/>
    <path fill="#ffffff" d="M200 -14Q114 -14 72.5 46.0Q31 106 31 230V528H193V232Q193 174 209.5 151.0Q226 128 257 128Q279 128 297.5 139.5Q316 151 330.0 174.5Q344 198 351.5 235.0Q359 272 359 324V528H521V238V0H383V206H376Q370 129 349.0 80.5Q328 32 291.0 9.0Q254 -14 200 -14Z" transform="translate(316.854,124.000) scale(0.057000,-0.057000)"/>
    <path fill="#ffffff" d="M36 0V287V528H176V318H184Q190 402 207.5 450.5Q225 499 251.5 519.5Q278 540 311 540Q329 540 348.5 535.0Q368 530 387 519L379 339Q357 352 336.0 358.5Q315 365 296 365Q264 365 242.0 347.0Q220 329 208.5 294.0Q197 259 197 209V0Z" transform="translate(347.103,124.000) scale(0.057000,-0.057000)"/>
    <path fill="#ffffff" d="M287 -14Q212 -14 161.5 7.5Q111 29 80.0 66.5Q49 104 35.5 152.0Q22 200 22 253Q22 310 36.5 362.0Q51 414 81.5 454.5Q112 495 160.5 518.5Q209 542 277 542Q345 542 393.5 518.5Q442 495 471.0 453.0Q500 411 508.5 356.0Q517 301 506 237L123 231V319L382 324L361 273Q367 319 359.5 350.5Q352 382 332.0 398.5Q312 415 277 415Q240 415 218.0 396.0Q196 377 187.0 342.5Q178 308 178 261Q178 180 205.0 143.0Q232 106 288 106Q312 106 328.0 112.0Q344 118 354.0 129.5Q364 141 368.0 157.5Q372 174 371 195L519 187Q522 154 512.5 119.0Q503 84 477.0 54.0Q451 24 404.5 5.0Q358 -14 287 -14Z" transform="translate(367.719,124.000) scale(0.057000,-0.057000)"/>
  </g>
  <!-- "MY LEARNING" - Inter 600, outlined -->
  <g>
    <path fill="#ffffff" d="M180 0V1490H450L817 550Q830 517 846.5 467.5Q863 418 881.5 360.0Q900 302 917.0 244.5Q934 187 947 138H905Q919 184 936.0 240.5Q953 297 971.5 355.5Q990 414 1007.0 465.0Q1024 516 1037 550L1399 1490H1670V0H1483V851Q1483 897 1483.5 956.0Q1484 1015 1485.5 1080.0Q1487 1145 1488.5 1212.0Q1490 1279 1491 1342H1507Q1486 1273 1462.5 1201.5Q1439 1130 1416.5 1063.5Q1394 997 1374.0 942.0Q1354 887 1340 851L1007 0H842L504 851Q490 886 471.0 939.5Q452 993 429.5 1058.5Q407 1124 383.0 1196.5Q359 1269 334 1342H352Q354 1286 355.5 1221.0Q357 1156 358.0 1089.5Q359 1023 360.0 961.5Q361 900 361 851V0Z" transform="translate(168.000,159.000) scale(0.009766,-0.009766)"/>
    <path fill="#ffffff" d="M600 0V610L52 1490H272L567 1009Q617 928 655.5 854.5Q694 781 735 669H659Q700 783 739.0 857.5Q778 932 825 1009L1119 1490H1338L790 610V0Z" transform="translate(191.566,159.000) scale(0.009766,-0.009766)"/>
    <path fill="#ffffff" d="M180 0V1490H370V168H1060V0Z" transform="translate(221.766,159.000) scale(0.009766,-0.009766)"/>
    <path fill="#ffffff" d="M180 0V1490H1088V1322H370V836H1039V668H370V168H1097V0Z" transform="translate(238.574,159.000) scale(0.009766,-0.009766)"/>
    <path fill="#ffffff" d="M52 0 593 1490H813L1361 0H1161L845 884Q816 966 777.5 1088.5Q739 1211 684 1401H720Q666 1209 626.5 1084.5Q587 960 561 884L254 0ZM324 416V582H1089V416Z" transform="translate(256.096,159.000) scale(0.009766,-0.009766)"/>
    <path fill="#ffffff" d="M180 0V1490H690Q864 1490 976.5 1430.5Q1089 1371 1143.5 1267.0Q1198 1163 1198 1030Q1198 897 1143.5 795.0Q1089 693 977.0 635.5Q865 578 691 578H286V747H682Q800 747 871.5 781.5Q943 816 976.0 879.5Q1009 943 1009 1030Q1009 1119 976.0 1184.5Q943 1250 871.0 1286.5Q799 1323 680 1323H370V0ZM1036 0 676 671H890L1256 0Z" transform="translate(275.395,159.000) scale(0.009766,-0.009766)"/>
    <path fill="#ffffff" d="M180 0V1490H404L1010 537Q1034 500 1068.0 442.0Q1102 384 1141.5 311.0Q1181 238 1219 155H1192Q1183 241 1179.0 319.5Q1175 398 1174.0 464.0Q1173 530 1173 576V1490H1363V0H1137L597 848Q560 907 522.5 969.5Q485 1032 437.0 1117.5Q389 1203 318 1329H353Q358 1218 362.0 1124.0Q366 1030 368.5 960.0Q371 890 371 850V0Z" transform="translate(293.766,159.000) scale(0.009766,-0.009766)"/>
    <path fill="#ffffff" d="M370 1490V0H180V1490Z" transform="translate(314.334,159.000) scale(0.009766,-0.009766)"/>
    <path fill="#ffffff" d="M180 0V1490H404L1010 537Q1034 500 1068.0 442.0Q1102 384 1141.5 311.0Q1181 238 1219 155H1192Q1183 241 1179.0 319.5Q1175 398 1174.0 464.0Q1173 530 1173 576V1490H1363V0H1137L597 848Q560 907 522.5 969.5Q485 1032 437.0 1117.5Q389 1203 318 1329H353Q358 1218 362.0 1124.0Q366 1030 368.5 960.0Q371 890 371 850V0Z" transform="translate(325.205,159.000) scale(0.009766,-0.009766)"/>
    <path fill="#ffffff" d="M789 -20Q590 -20 440.0 73.0Q290 166 206.0 337.5Q122 509 122 744Q122 981 206.0 1152.5Q290 1324 438.0 1417.0Q586 1510 777 1510Q895 1510 997.5 1475.0Q1100 1440 1181.0 1375.0Q1262 1310 1315.5 1220.5Q1369 1131 1389 1023H1193Q1170 1095 1132.0 1152.0Q1094 1209 1041.5 1250.0Q989 1291 923.0 1312.5Q857 1334 778 1334Q647 1334 540.0 1266.5Q433 1199 370.0 1067.5Q307 936 307 744Q307 554 370.5 423.0Q434 292 543.0 224.0Q652 156 789 156Q915 156 1011.0 209.5Q1107 263 1160.5 361.5Q1214 460 1214 594L1271 583H828V749H1400V586Q1400 401 1321.0 265.0Q1242 129 1104.5 54.5Q967 -20 789 -20Z" transform="translate(345.773,159.000) scale(0.009766,-0.009766)"/>
  </g>
</svg>
